<svg id="Layer_1" data-name="Layer 1" xmlns="http://www.w3.org/2000/svg" xmlns:xlink="http://www.w3.org/1999/xlink" viewBox="0 0 617.1 341.12"><defs><style>.cls-1{fill:url(#linear-gradient);}.cls-2{fill:url(#linear-gradient-2);}.cls-3{fill:url(#linear-gradient-3);}.cls-4{fill:url(#linear-gradient-4);}.cls-5{fill:url(#linear-gradient-5);}.cls-6{fill:url(#linear-gradient-6);}.cls-7{fill:url(#linear-gradient-7);}.cls-8{fill:url(#linear-gradient-8);}.cls-9{fill:url(#linear-gradient-9);}</style><linearGradient id="linear-gradient" x1="534.36" y1="611.5" x2="544.72" y2="593.56" gradientUnits="userSpaceOnUse"><stop offset="0" stop-color="#7f3017"/><stop offset="0.05" stop-color="#843617"/><stop offset="0.12" stop-color="#924615"/><stop offset="0.19" stop-color="#a86113"/><stop offset="0.27" stop-color="#c88711"/><stop offset="0.36" stop-color="#f0b70d"/><stop offset="0.38" stop-color="#fdc70c"/><stop offset="0.7" stop-color="#fff33b"/><stop offset="0.77" stop-color="#ddc231"/><stop offset="0.94" stop-color="#874717"/><stop offset="1" stop-color="#691c0e"/></linearGradient><linearGradient id="linear-gradient-2" x1="403.61" y1="594.17" x2="562.46" y2="319.04" xlink:href="#linear-gradient"/><linearGradient id="linear-gradient-3" x1="549.96" y1="599.52" x2="551.44" y2="596.96" xlink:href="#linear-gradient"/><linearGradient id="linear-gradient-4" x1="606.93" y1="653.4" x2="799.55" y2="319.77" xlink:href="#linear-gradient"/><linearGradient id="linear-gradient-5" x1="568.8" y1="599.55" x2="619.14" y2="512.35" xlink:href="#linear-gradient"/><linearGradient id="linear-gradient-6" x1="711.61" y1="597.61" x2="761.07" y2="511.95" xlink:href="#linear-gradient"/><linearGradient id="linear-gradient-7" x1="642.36" y1="596.21" x2="686.64" y2="519.52" xlink:href="#linear-gradient"/><linearGradient id="linear-gradient-8" x1="765.46" y1="637.04" x2="836.15" y2="514.61" xlink:href="#linear-gradient"/><linearGradient id="linear-gradient-9" x1="658" y1="426.5" x2="658" y2="426.5" xlink:href="#linear-gradient"/></defs><title>Logo</title><path class="cls-1" d="M550.65,600.08s0-.1,0-.15a13.71,13.71,0,0,1-.18-2c0-.28,0-.6,0-1q-2.55.89-5.19,1.62a100.81,100.81,0,0,1-17.53,3.13,25.72,25.72,0,0,0-.37,3.33q0,4.32,5.35,4.32c5.28,0,11.2-1.56,17.75-4.64C550.51,603.13,550.53,601.6,550.65,600.08Z" transform="translate(-347.4 -303.19)"/><path class="cls-2" d="M556.6,316.18c-18-6-41.32-13-54-13a155.77,155.77,0,0,0-36.44,4.27A152.84,152.84,0,0,0,432.31,320a147.86,147.86,0,0,0-29.92,20.24,159.59,159.59,0,0,0-47.57,74.46,187.89,187.89,0,0,0-7.42,52.74q0,56.68,31,98.53,41.39,56.23,117.41,56.23a158,158,0,0,0,39-4.61,120.47,120.47,0,0,0,15.86-5.22c0-2.54-.16-5.1-.2-7.65-6.55,3.08-12.47,4.64-17.75,4.64q-5.36,0-5.35-4.32a25.72,25.72,0,0,1,.37-3.33c-4.71.47-9.75.7-15.09.7a125.51,125.51,0,0,1-32-4,107.6,107.6,0,0,1-28.45-11.92,98.35,98.35,0,0,1-23.29-19.57,104,104,0,0,1-17-27.22Q398.67,509,398.68,467.84a266.68,266.68,0,0,1,4-48.69,172.32,172.32,0,0,1,11.7-38.81q13.93-31,37.56-46t54.21-14.95a110.81,110.81,0,0,1,33.74,4.94c13.84,4.4,21.72,18.65,28.34,15.53a7.63,7.63,0,0,0,3.7-4.11c1.51-4.17-1.72-8.66-3-10.41A26.24,26.24,0,0,0,556.6,316.18Z" transform="translate(-347.4 -303.19)"/><path class="cls-3" d="M550.49,597.89a13.71,13.71,0,0,0,.18,2c.07-.82.19-1.68.35-2.56a5.79,5.79,0,0,1,0-.65l-.51.19C550.5,597.29,550.49,597.61,550.49,597.89Z" transform="translate(-347.4 -303.19)"/><path class="cls-4" d="M819,439.5a1764.71,1764.71,0,0,1-217.38,13.73H532a37.11,37.11,0,0,0-25.21,3.39c-14,7.54-17.71,21.61-18.26,23.88a90.14,90.14,0,0,1,51.19-11.43H554L529.5,592.23c-.79,4.09-1.36,7.23-1.69,9.43a25.72,25.72,0,0,0-.37,3.33q0,4.32,5.35,4.32c5.18,0,11-1.5,17.35-4.46a5.66,5.66,0,0,1-.29-2.09,5.59,5.59,0,0,1,.66-4.38c0-.17,0-.34,0-.5s0-.6,0-1a107.74,107.74,0,0,1,1.92-11.68L575.7,469.07H588A1340.39,1340.39,0,0,0,767,461c62.84-7.13,99.85-16,115.5-20a745.46,745.46,0,0,0,82-26C919.52,424.53,870.92,433,819,439.5Z" transform="translate(-347.4 -303.19)"/><path class="cls-5" d="M596.56,511v19.89Q605.36,511,614.47,511a8.4,8.4,0,0,1,3.8.87,10.13,10.13,0,0,1,3.07,2.37,10.85,10.85,0,0,1,2,3.43,11.51,11.51,0,0,1,.72,4.05,10.25,10.25,0,0,1-2,6.37,5.78,5.78,0,0,1-4.71,2.61,5.34,5.34,0,0,1-2.88-1.06q-1.59-1.06-3.15-2.27t-2.85-2.27a3.77,3.77,0,0,0-2-1.06,3.47,3.47,0,0,0-2.2,1.11,16.13,16.13,0,0,0-2.5,3.09,47,47,0,0,0-2.66,4.73q-1.37,2.75-2.66,6v42.38a60.65,60.65,0,0,0,.38,7.14,14.37,14.37,0,0,0,1.63,5.41,8.36,8.36,0,0,0,3.68,3.43,14.57,14.57,0,0,0,6.45,1.21V602H573.1v-3.48a21.32,21.32,0,0,0,5.47-.58,5.8,5.8,0,0,0,3.34-2.32,11.51,11.51,0,0,0,1.67-5,63.85,63.85,0,0,0,.46-8.54V547.88q0-15.64-.53-18.34-1-5.69-5.09-5.7a12.32,12.32,0,0,0-5.31,1.45l-.76-3.48,21-10.81Z" transform="translate(-347.4 -303.19)"/><path class="cls-6" d="M763.94,513.61v53.57q0,15.54.53,18.82a9.53,9.53,0,0,0,1.86,4.73,3.86,3.86,0,0,0,2.92,1.35,11.52,11.52,0,0,0,5.31-1.64l1.06,3.38-20.8,10.91h-3.42V586q-9,12.36-13.66,15.54a17.45,17.45,0,0,1-9.94,3.19,13.87,13.87,0,0,1-10.1-4.2,23.21,23.21,0,0,1-6-11.15Q710,582.72,710,570.27V530.79a35.37,35.37,0,0,0-.57-7,8.91,8.91,0,0,0-1.86-4.15,6.3,6.3,0,0,0-3.38-1.93,22.79,22.79,0,0,0-5-.48h-.91v-3.57h24.37v59.17a45.68,45.68,0,0,0,.95,10.33,17.15,17.15,0,0,0,2.54,6.13,7.76,7.76,0,0,0,3.68,2.9,13.22,13.22,0,0,0,4.36.72,11.67,11.67,0,0,0,3.45-.58,14.76,14.76,0,0,0,3.95-2,34.33,34.33,0,0,0,4.52-3.86,67,67,0,0,0,5.31-6.08v-50.1A35.18,35.18,0,0,0,751,524a8.45,8.45,0,0,0-1.71-4,6.79,6.79,0,0,0-3.42-2.12,22.93,22.93,0,0,0-5.58-.72v-3.57Z" transform="translate(-347.4 -303.19)"/><path class="cls-7" d="M664.72,511a25.89,25.89,0,0,1,13.51,3.67,35.22,35.22,0,0,1,10.59,9.85,48.24,48.24,0,0,1,6.91,14.38,59.73,59.73,0,0,1,2.47,17.28,65.13,65.13,0,0,1-2.54,18.29,55,55,0,0,1-7.1,15.49,37.06,37.06,0,0,1-10.85,10.76,25.24,25.24,0,0,1-13.82,4,24.34,24.34,0,0,1-13.4-3.86,35.61,35.61,0,0,1-10.36-10.28,51,51,0,0,1-6.68-14.72,62.66,62.66,0,0,1-2.35-17.18,64.25,64.25,0,0,1,2.43-17.57,54.26,54.26,0,0,1,6.87-15.3A37.18,37.18,0,0,1,651,515.05,24.47,24.47,0,0,1,664.72,511Zm-2.35,6.27a12.6,12.6,0,0,0-6.41,1.79,15.88,15.88,0,0,0-5.47,5.79,35.76,35.76,0,0,0-3.83,10.33,70.33,70.33,0,0,0-1.44,15.4,100.52,100.52,0,0,0,1.56,18,68,68,0,0,0,4.4,15.11A31.47,31.47,0,0,0,658.08,594a12.85,12.85,0,0,0,9.07,3.86,13.12,13.12,0,0,0,6.72-1.79,15,15,0,0,0,5.35-5.79,35.39,35.39,0,0,0,3.57-10.57,85.3,85.3,0,0,0,1.29-16.12,106.17,106.17,0,0,0-1.44-18,63.56,63.56,0,0,0-4.21-14.72,28.82,28.82,0,0,0-6.83-10A13.39,13.39,0,0,0,662.37,517.27Z" transform="translate(-347.4 -303.19)"/><path class="cls-8" d="M778.43,522.39l21.41-11h2.88V532a78.11,78.11,0,0,1,5.43-9.85,34.23,34.23,0,0,1,5.43-6.52,18.42,18.42,0,0,1,5.58-3.57A15.87,15.87,0,0,1,825,511a17.94,17.94,0,0,1,10.74,3.48,29.12,29.12,0,0,1,8.2,9.41,52,52,0,0,1,5.24,13.85A73.74,73.74,0,0,1,851,554.63a80.14,80.14,0,0,1-2.24,19.16,57.08,57.08,0,0,1-6.38,16,35.06,35.06,0,0,1-10,10.91,22.5,22.5,0,0,1-13.13,4.05,34.39,34.39,0,0,1-4.63-.29,14.71,14.71,0,0,1-4.06-1.16,18.28,18.28,0,0,1-3.83-2.37,28.56,28.56,0,0,1-4-4v26.93q0,4.73.19,7.48a20.07,20.07,0,0,0,.65,4.25,5.45,5.45,0,0,0,1.21,2.27,10.21,10.21,0,0,0,1.82,1.45q2.12,1.45,7.89,1.45v3.57H778.05v-3.57H780a14.62,14.62,0,0,0,5.62-1.06,6.76,6.76,0,0,0,3.72-4.44q.83-2.41.83-12v-83.6q0-5.11-.27-8.16a16.42,16.42,0,0,0-.95-4.68,3.8,3.8,0,0,0-1.9-2.17,7.61,7.61,0,0,0-3-.53,12.22,12.22,0,0,0-4.63,1.35Zm24.29,15.35v33q0,10.81.68,14.09a19.35,19.35,0,0,0,1.86,5.36,16.6,16.6,0,0,0,3.38,4.49,16.44,16.44,0,0,0,4.67,3.09,14,14,0,0,0,5.73,1.16,12.54,12.54,0,0,0,7.86-2.65,20.84,20.84,0,0,0,5.81-7.34,42.14,42.14,0,0,0,3.57-11.15,76.5,76.5,0,0,0,1.21-14.09,83.81,83.81,0,0,0-1.33-15.4,50.9,50.9,0,0,0-3.76-12.26,24,24,0,0,0-5.84-8.11A11.35,11.35,0,0,0,819,525a8.92,8.92,0,0,0-3.64.77,15.59,15.59,0,0,0-3.64,2.37,40.81,40.81,0,0,0-4.06,4Q805.46,534.56,802.72,537.74Z" transform="translate(-347.4 -303.19)"/><path class="cls-9" d="M658,426.5" transform="translate(-347.4 -303.19)"/></svg>