<svg width="381" height="734" viewBox="0 0 381 734" fill="none" xmlns="http://www.w3.org/2000/svg">
<g opacity="0.2">
<mask id="mask0" mask-type="alpha" maskUnits="userSpaceOnUse" x="0" y="0" width="381" height="734">
<path fill-rule="evenodd" clip-rule="evenodd" d="M5.34708e-05 734C4.49562e-05 539.208 171.21 380.109 381 369.423L381 364.572C171.21 353.881 6.94579e-06 194.74 -1.56658e-06 0L5.34708e-05 734Z" fill="white"/>
</mask>
<g mask="url(#mask0)">
<line x1="4.21632" y1="908.178" x2="4.21625" y2="-43.8224" stroke="#A02143" stroke-width="0.8"/>
<line x1="10.2163" y1="908.178" x2="10.2163" y2="-43.8224" stroke="#A02143" stroke-width="0.8"/>
<line x1="16.2164" y1="908.178" x2="16.2163" y2="-43.8224" stroke="#A02143" stroke-width="0.8"/>
<line x1="22.2164" y1="908.178" x2="22.2163" y2="-43.8224" stroke="#A02143" stroke-width="0.8"/>
<line x1="28.2164" y1="908.178" x2="28.2163" y2="-43.8224" stroke="#A02143" stroke-width="0.8"/>
<line x1="34.2164" y1="908.178" x2="34.2164" y2="-43.8224" stroke="#A02143" stroke-width="0.8"/>
<line x1="40.2164" y1="908.178" x2="40.2164" y2="-43.8224" stroke="#A02143" stroke-width="0.8"/>
<line x1="46.2165" y1="908.178" x2="46.2164" y2="-43.8224" stroke="#A02143" stroke-width="0.8"/>
<line x1="52.2165" y1="908.178" x2="52.2164" y2="-43.8224" stroke="#A02143" stroke-width="0.8"/>
<line x1="58.2165" y1="908.178" x2="58.2164" y2="-43.8224" stroke="#A02143" stroke-width="0.8"/>
<line x1="64.2165" y1="908.178" x2="64.2164" y2="-43.8224" stroke="#A02143" stroke-width="0.8"/>
<line x1="70.2165" y1="908.178" x2="70.2165" y2="-43.8224" stroke="#A02143" stroke-width="0.8"/>
<line x1="76.2165" y1="908.178" x2="76.2165" y2="-43.8224" stroke="#A02143" stroke-width="0.8"/>
<line x1="82.2165" y1="908.178" x2="82.2165" y2="-43.8224" stroke="#A02143" stroke-width="0.8"/>
<line x1="88.2166" y1="908.178" x2="88.2165" y2="-43.8224" stroke="#A02143" stroke-width="0.8"/>
<line x1="94.2166" y1="908.178" x2="94.2165" y2="-43.8224" stroke="#A02143" stroke-width="0.8"/>
<line x1="100.217" y1="908.178" x2="100.217" y2="-43.8224" stroke="#A02143" stroke-width="0.8"/>
<line x1="106.217" y1="908.178" x2="106.217" y2="-43.8224" stroke="#A02143" stroke-width="0.8"/>
<line x1="112.217" y1="908.178" x2="112.217" y2="-43.8224" stroke="#A02143" stroke-width="0.8"/>
<line x1="118.217" y1="908.178" x2="118.217" y2="-43.8224" stroke="#A02143" stroke-width="0.8"/>
<line x1="124.217" y1="908.178" x2="124.217" y2="-43.8224" stroke="#A02143" stroke-width="0.8"/>
<line x1="130.217" y1="908.178" x2="130.217" y2="-43.8224" stroke="#A02143" stroke-width="0.8"/>
<line x1="136.217" y1="908.178" x2="136.217" y2="-43.8224" stroke="#A02143" stroke-width="0.8"/>
<line x1="142.217" y1="908.178" x2="142.217" y2="-43.8224" stroke="#A02143" stroke-width="0.8"/>
<line x1="148.217" y1="908.178" x2="148.217" y2="-43.8224" stroke="#A02143" stroke-width="0.8"/>
<line x1="154.217" y1="908.178" x2="154.217" y2="-43.8224" stroke="#A02143" stroke-width="0.8"/>
<line x1="160.217" y1="908.178" x2="160.217" y2="-43.8224" stroke="#A02143" stroke-width="0.8"/>
<line x1="166.217" y1="908.178" x2="166.217" y2="-43.8224" stroke="#A02143" stroke-width="0.8"/>
<line x1="172.217" y1="908.178" x2="172.217" y2="-43.8224" stroke="#A02143" stroke-width="0.8"/>
<line x1="178.217" y1="908.178" x2="178.217" y2="-43.8224" stroke="#A02143" stroke-width="0.8"/>
<line x1="184.217" y1="908.178" x2="184.217" y2="-43.8224" stroke="#A02143" stroke-width="0.8"/>
<line x1="190.217" y1="908.178" x2="190.217" y2="-43.8224" stroke="#A02143" stroke-width="0.8"/>
<line x1="196.217" y1="908.178" x2="196.217" y2="-43.8224" stroke="#A02143" stroke-width="0.8"/>
<line x1="202.217" y1="908.178" x2="202.217" y2="-43.8224" stroke="#A02143" stroke-width="0.8"/>
<line x1="208.217" y1="908.178" x2="208.217" y2="-43.8224" stroke="#A02143" stroke-width="0.8"/>
<line x1="214.217" y1="908.178" x2="214.217" y2="-43.8224" stroke="#A02143" stroke-width="0.8"/>
<line x1="220.217" y1="908.178" x2="220.217" y2="-43.8224" stroke="#A02143" stroke-width="0.8"/>
<line x1="226.217" y1="908.178" x2="226.217" y2="-43.8224" stroke="#A02143" stroke-width="0.8"/>
<line x1="232.217" y1="908.178" x2="232.217" y2="-43.8224" stroke="#A02143" stroke-width="0.8"/>
<line x1="238.217" y1="908.178" x2="238.217" y2="-43.8224" stroke="#A02143" stroke-width="0.8"/>
<line x1="244.217" y1="908.178" x2="244.217" y2="-43.8224" stroke="#A02143" stroke-width="0.8"/>
<line x1="250.217" y1="908.178" x2="250.217" y2="-43.8224" stroke="#A02143" stroke-width="0.8"/>
<line x1="256.217" y1="908.178" x2="256.217" y2="-43.8224" stroke="#A02143" stroke-width="0.8"/>
<line x1="262.217" y1="908.178" x2="262.217" y2="-43.8224" stroke="#A02143" stroke-width="0.8"/>
<line x1="268.217" y1="908.178" x2="268.217" y2="-43.8224" stroke="#A02143" stroke-width="0.8"/>
<line x1="274.217" y1="908.178" x2="274.217" y2="-43.8224" stroke="#A02143" stroke-width="0.8"/>
<line x1="280.217" y1="908.178" x2="280.217" y2="-43.8224" stroke="#A02143" stroke-width="0.8"/>
<line x1="286.217" y1="908.178" x2="286.217" y2="-43.8224" stroke="#A02143" stroke-width="0.8"/>
<line x1="292.217" y1="908.178" x2="292.217" y2="-43.8224" stroke="#A02143" stroke-width="0.8"/>
<line x1="298.217" y1="908.178" x2="298.217" y2="-43.8224" stroke="#A02143" stroke-width="0.8"/>
<line x1="304.217" y1="908.178" x2="304.217" y2="-43.8224" stroke="#A02143" stroke-width="0.8"/>
<line x1="310.217" y1="908.178" x2="310.217" y2="-43.8224" stroke="#A02143" stroke-width="0.8"/>
<line x1="316.218" y1="908.178" x2="316.217" y2="-43.8224" stroke="#A02143" stroke-width="0.8"/>
<line x1="322.218" y1="908.178" x2="322.217" y2="-43.8224" stroke="#A02143" stroke-width="0.8"/>
<line x1="328.218" y1="908.178" x2="328.218" y2="-43.8224" stroke="#A02143" stroke-width="0.8"/>
<line x1="334.218" y1="908.178" x2="334.218" y2="-43.8224" stroke="#A02143" stroke-width="0.8"/>
<line x1="340.218" y1="908.178" x2="340.218" y2="-43.8224" stroke="#A02143" stroke-width="0.8"/>
<line x1="346.218" y1="908.178" x2="346.218" y2="-43.8224" stroke="#A02143" stroke-width="0.8"/>
<line x1="352.218" y1="908.178" x2="352.218" y2="-43.8224" stroke="#A02143" stroke-width="0.8"/>
<line x1="358.218" y1="908.178" x2="358.218" y2="-43.8224" stroke="#A02143" stroke-width="0.8"/>
<line x1="364.218" y1="908.178" x2="364.218" y2="-43.8224" stroke="#A02143" stroke-width="0.8"/>
<line x1="370.218" y1="908.178" x2="370.218" y2="-43.8224" stroke="#A02143" stroke-width="0.8"/>
<line x1="376.218" y1="908.178" x2="376.218" y2="-43.8224" stroke="#A02143" stroke-width="0.8"/>
</g>
</g>
</svg>
