<svg width="319" height="68" viewBox="0 0 319 68" fill="none" xmlns="http://www.w3.org/2000/svg">
<g opacity="0.4">
<path d="M150.427 66.8897H157.95H159.584V66.8897H157.95H150.427V66.8897V66.8897Z" stroke="url(#paint0_linear)"/>
<path d="M140.854 66.8897H156.232H159.584V66.8897H156.232H140.854V66.8897V66.8897Z" stroke="url(#paint1_linear)"/>
<path d="M131.696 66.8897H154.598H159.584V66.8897H154.598H131.696V66.8897V66.8897Z" stroke="url(#paint2_linear)"/>
<path d="M122.539 66.8897H152.962H159.584V66.8897H152.962H122.539V66.8897V66.8897Z" stroke="url(#paint3_linear)"/>
<path d="M112.966 66.8897H151.254H159.584V66.8897H151.254H112.966V66.8897V66.8897Z" stroke="url(#paint4_linear)"/>
<path d="M103.393 66.8897H149.544H159.584V66.8897H149.544H103.393V66.8897V66.8897Z" stroke="url(#paint5_linear)"/>
<path d="M94.2354 66.8897H147.909H159.584V66.8897H147.909H94.2354V66.8897V66.8897Z" stroke="url(#paint6_linear)"/>
<path d="M84.6621 66.8897H146.2H159.584V66.8897H146.2H84.6621V66.8897V66.8897Z" stroke="url(#paint7_linear)"/>
<path d="M75.5049 66.8897H144.557H159.583V66.8897H144.557H75.5049V66.8897V66.8897Z" stroke="url(#paint8_linear)"/>
<path d="M66.3486 66.8897H142.924H159.584V66.8897H142.924H66.3486V66.8897V66.8897Z" stroke="url(#paint9_linear)"/>
<path d="M56.7744 66.8897H141.213H159.583V66.8897H141.213H56.7744V66.8897V66.8897Z" stroke="url(#paint10_linear)"/>
<path d="M47.6182 66.8897H139.58H159.584V66.8897H139.58H47.6182V66.8897V66.8897Z" stroke="url(#paint11_linear)"/>
<path d="M38.0449 66.8897H137.87H159.584V66.8897H137.87H38.0449V66.8897V66.8897V66.8897Z" stroke="url(#paint12_linear)"/>
<path d="M28.8877 66.8897H136.236H159.584V66.8897H136.236H28.8877V66.8897V66.8897V66.8897Z" stroke="url(#paint13_linear)"/>
<path d="M19.3145 66.8897H134.518H159.584V66.8897H134.518H19.3145V66.8897V66.8897V66.8897Z" stroke="url(#paint14_linear)"/>
<path d="M9.74121 66.8897H132.816H159.584V66.8897H132.816H9.74121V66.8897V66.8897Z" stroke="url(#paint15_linear)"/>
<path d="M0.583984 66.8897H131.174H159.584V66.8897H131.174H0.583984V66.8897V66.8897V66.8897Z" stroke="url(#paint16_linear)"/>
<path d="M159.584 0.024231V66.8897V66.8897V0.024231" stroke="url(#paint17_linear)"/>
<path d="M176.233 0.374329L159.584 66.8897V66.8897L176.233 0.374329" stroke="url(#paint18_linear)"/>
<path d="M192.882 1.59961L159.584 66.8897V66.8897L192.882 1.59961" stroke="url(#paint19_linear)"/>
<path d="M208.699 3.35004L159.584 66.8897V66.8897L208.699 3.35004" stroke="url(#paint20_linear)"/>
<path d="M224.516 5.8006L159.584 66.8897V66.8897L224.516 5.8006" stroke="url(#paint21_linear)"/>
<path d="M239.084 8.95129L159.584 66.8897V66.8897L239.084 8.95129" stroke="url(#paint22_linear)"/>
<path d="M253.236 12.8022L159.584 66.8897V66.8897L253.236 12.8022" stroke="url(#paint23_linear)"/>
<path d="M266.139 17.1782L159.584 66.8897V66.8897L266.139 17.1782" stroke="url(#paint24_linear)"/>
<path d="M277.793 22.2544L159.584 66.8897V66.8897L277.793 22.2544" stroke="url(#paint25_linear)"/>
<path d="M288.199 27.6807L159.584 66.8897V66.8897L288.199 27.6807" stroke="url(#paint26_linear)"/>
<path d="M297.356 33.457L159.584 66.8897V66.8897L297.356 33.457" stroke="url(#paint27_linear)"/>
<path d="M304.848 39.5834L159.584 66.8897V66.8897L304.848 39.5834" stroke="url(#paint28_linear)"/>
<path d="M310.676 46.2349L159.584 66.8897V66.8897L310.676 46.2349" stroke="url(#paint29_linear)"/>
<path d="M315.254 52.8865L159.584 66.8897V66.8897L315.254 52.8865" stroke="url(#paint30_linear)"/>
<path d="M317.752 59.8881L159.584 66.8897V66.8897L317.752 59.8881" stroke="url(#paint31_linear)"/>
<path d="M168.741 66.8897H161.219H159.584V66.8897H161.219H168.741V66.8897V66.8897Z" stroke="url(#paint32_linear)"/>
<path d="M178.314 66.8897H162.928H159.584V66.8897H162.928H178.314V66.8897V66.8897Z" stroke="url(#paint33_linear)"/>
<path d="M187.471 66.8897H164.563H159.584V66.8897H164.563H187.471V66.8897V66.8897Z" stroke="url(#paint34_linear)"/>
<path d="M197.461 66.8897H166.346H159.584V66.8897H166.346H197.461V66.8897V66.8897Z" stroke="url(#paint35_linear)"/>
<path d="M206.618 66.8897H167.982H159.584V66.8897H167.982H206.618V66.8897V66.8897Z" stroke="url(#paint36_linear)"/>
<path d="M215.775 66.8897H169.617H159.584V66.8897H169.617H215.775V66.8897V66.8897Z" stroke="url(#paint37_linear)"/>
<path d="M225.348 66.8897H171.333H159.584V66.8897H171.333H225.348V66.8897V66.8897Z" stroke="url(#paint38_linear)"/>
<path d="M234.505 66.8897H172.969H159.584V66.8897H172.969H234.505V66.8897V66.8897Z" stroke="url(#paint39_linear)"/>
<path d="M243.663 66.8897H174.603H159.584V66.8897H174.603H243.663V66.8897V66.8897Z" stroke="url(#paint40_linear)"/>
<path d="M253.236 66.8897H176.313H159.584V66.8897H176.313H253.236V66.8897V66.8897Z" stroke="url(#paint41_linear)"/>
<path d="M262.393 66.8897H177.947H159.584V66.8897H177.947H262.393V66.8897V66.8897Z" stroke="url(#paint42_linear)"/>
<path d="M271.55 66.8897H179.582H159.584V66.8897H179.582H271.55V66.8897V66.8897Z" stroke="url(#paint43_linear)"/>
<path d="M281.539 66.8897H181.365H159.584V66.8897H181.365H281.539V66.8897V66.8897Z" stroke="url(#paint44_linear)"/>
<path d="M290.697 66.8897H183.008H159.584V66.8897H183.008H290.697V66.8897V66.8897Z" stroke="url(#paint45_linear)"/>
<path d="M300.27 66.8897H184.718H159.584V66.8897H184.718H300.27V66.8897V66.8897Z" stroke="url(#paint46_linear)"/>
<path d="M309.427 66.8897H186.352H159.584V66.8897H186.352H309.427V66.8897V66.8897Z" stroke="url(#paint47_linear)"/>
<path d="M318.584 66.8897H187.988H159.584V66.8897H187.988H318.584V66.8897V66.8897Z" stroke="url(#paint48_linear)"/>
<path d="M142.935 0.374329L159.584 66.8897V66.8897L142.935 0.374329" stroke="url(#paint49_linear)"/>
<path d="M126.701 1.59961L159.583 66.8897V66.8897L126.701 1.59961" stroke="url(#paint50_linear)"/>
<path d="M110.469 3.35004L159.584 66.8897V66.8897L110.469 3.35004" stroke="url(#paint51_linear)"/>
<path d="M94.6514 5.8006L159.583 66.8897V66.8897L94.6514 5.8006" stroke="url(#paint52_linear)"/>
<path d="M80.084 8.95129L159.584 66.8897V66.8897L80.084 8.95129" stroke="url(#paint53_linear)"/>
<path d="M66.3486 12.8022L159.584 66.8897V66.8897L66.3486 12.8022" stroke="url(#paint54_linear)"/>
<path d="M53.4453 17.1782L159.584 66.8897V66.8897L53.4453 17.1782" stroke="url(#paint55_linear)"/>
<path d="M41.374 22.2544L159.583 66.8897V66.8897L41.374 22.2544" stroke="url(#paint56_linear)"/>
<path d="M30.9688 27.6807L159.584 66.8897V66.8897L30.9688 27.6807" stroke="url(#paint57_linear)"/>
<path d="M21.8115 33.457L159.584 66.8897V66.8897L21.8115 33.457" stroke="url(#paint58_linear)"/>
<path d="M14.3193 39.5834L159.584 66.8897V66.8897L14.3193 39.5834" stroke="url(#paint59_linear)"/>
<path d="M8.49219 46.2349L159.584 66.8897V66.8897L8.49219 46.2349" stroke="url(#paint60_linear)"/>
<path d="M4.33008 52.8865L159.584 66.8897V66.8897L4.33008 52.8865" stroke="url(#paint61_linear)"/>
<path d="M1.41602 59.8881L159.584 66.8897V66.8897L1.41602 59.8881" stroke="url(#paint62_linear)"/>
</g>
<defs>
<linearGradient id="paint0_linear" x1="155.005" y1="66.7147" x2="155.005" y2="67.0647" gradientUnits="userSpaceOnUse">
<stop stop-color="white" stop-opacity="0"/>
<stop offset="0.364583" stop-color="white" stop-opacity="0.3"/>
<stop offset="1" stop-color="white" stop-opacity="0.22"/>
</linearGradient>
<linearGradient id="paint1_linear" x1="150.219" y1="66.7147" x2="150.219" y2="67.0647" gradientUnits="userSpaceOnUse">
<stop stop-color="white" stop-opacity="0"/>
<stop offset="0.364583" stop-color="white" stop-opacity="0.3"/>
<stop offset="1" stop-color="white" stop-opacity="0.22"/>
</linearGradient>
<linearGradient id="paint2_linear" x1="145.64" y1="66.7147" x2="145.64" y2="67.0647" gradientUnits="userSpaceOnUse">
<stop stop-color="white" stop-opacity="0"/>
<stop offset="0.364583" stop-color="white" stop-opacity="0.3"/>
<stop offset="1" stop-color="white" stop-opacity="0.22"/>
</linearGradient>
<linearGradient id="paint3_linear" x1="141.061" y1="66.7147" x2="141.061" y2="67.0647" gradientUnits="userSpaceOnUse">
<stop stop-color="white" stop-opacity="0"/>
<stop offset="0.364583" stop-color="white" stop-opacity="0.3"/>
<stop offset="1" stop-color="white" stop-opacity="0.22"/>
</linearGradient>
<linearGradient id="paint4_linear" x1="136.275" y1="66.7147" x2="136.275" y2="67.0647" gradientUnits="userSpaceOnUse">
<stop stop-color="white" stop-opacity="0"/>
<stop offset="0.364583" stop-color="white" stop-opacity="0.3"/>
<stop offset="1" stop-color="white" stop-opacity="0.22"/>
</linearGradient>
<linearGradient id="paint5_linear" x1="131.488" y1="66.7147" x2="131.488" y2="67.0647" gradientUnits="userSpaceOnUse">
<stop stop-color="white" stop-opacity="0"/>
<stop offset="0.364583" stop-color="white" stop-opacity="0.3"/>
<stop offset="1" stop-color="white" stop-opacity="0.22"/>
</linearGradient>
<linearGradient id="paint6_linear" x1="126.909" y1="66.7147" x2="126.909" y2="67.0647" gradientUnits="userSpaceOnUse">
<stop stop-color="white" stop-opacity="0"/>
<stop offset="0.364583" stop-color="white" stop-opacity="0.3"/>
<stop offset="1" stop-color="white" stop-opacity="0.22"/>
</linearGradient>
<linearGradient id="paint7_linear" x1="122.123" y1="66.7147" x2="122.123" y2="67.0647" gradientUnits="userSpaceOnUse">
<stop stop-color="white" stop-opacity="0"/>
<stop offset="0.364583" stop-color="white" stop-opacity="0.3"/>
<stop offset="1" stop-color="white" stop-opacity="0.22"/>
</linearGradient>
<linearGradient id="paint8_linear" x1="117.544" y1="66.7147" x2="117.544" y2="67.0647" gradientUnits="userSpaceOnUse">
<stop stop-color="white" stop-opacity="0"/>
<stop offset="0.364583" stop-color="white" stop-opacity="0.3"/>
<stop offset="1" stop-color="white" stop-opacity="0.22"/>
</linearGradient>
<linearGradient id="paint9_linear" x1="112.966" y1="66.7147" x2="112.966" y2="67.0647" gradientUnits="userSpaceOnUse">
<stop stop-color="white" stop-opacity="0"/>
<stop offset="0.364583" stop-color="white" stop-opacity="0.3"/>
<stop offset="1" stop-color="white" stop-opacity="0.22"/>
</linearGradient>
<linearGradient id="paint10_linear" x1="108.179" y1="66.7147" x2="108.179" y2="67.0647" gradientUnits="userSpaceOnUse">
<stop stop-color="white" stop-opacity="0"/>
<stop offset="0.364583" stop-color="white" stop-opacity="0.3"/>
<stop offset="1" stop-color="white" stop-opacity="0.22"/>
</linearGradient>
<linearGradient id="paint11_linear" x1="103.601" y1="66.7147" x2="103.601" y2="67.0647" gradientUnits="userSpaceOnUse">
<stop stop-color="white" stop-opacity="0"/>
<stop offset="0.364583" stop-color="white" stop-opacity="0.3"/>
<stop offset="1" stop-color="white" stop-opacity="0.22"/>
</linearGradient>
<linearGradient id="paint12_linear" x1="98.8146" y1="66.7147" x2="98.8146" y2="67.0647" gradientUnits="userSpaceOnUse">
<stop stop-color="white" stop-opacity="0"/>
<stop offset="0.364583" stop-color="white" stop-opacity="0.3"/>
<stop offset="1" stop-color="white" stop-opacity="0.22"/>
</linearGradient>
<linearGradient id="paint13_linear" x1="94.2359" y1="66.7147" x2="94.2359" y2="67.0647" gradientUnits="userSpaceOnUse">
<stop stop-color="white" stop-opacity="0"/>
<stop offset="0.364583" stop-color="white" stop-opacity="0.3"/>
<stop offset="1" stop-color="white" stop-opacity="0.22"/>
</linearGradient>
<linearGradient id="paint14_linear" x1="89.4493" y1="66.7147" x2="89.4493" y2="67.0647" gradientUnits="userSpaceOnUse">
<stop stop-color="white" stop-opacity="0"/>
<stop offset="0.364583" stop-color="white" stop-opacity="0.3"/>
<stop offset="1" stop-color="white" stop-opacity="0.22"/>
</linearGradient>
<linearGradient id="paint15_linear" x1="84.6627" y1="66.7147" x2="84.6627" y2="67.0647" gradientUnits="userSpaceOnUse">
<stop stop-color="white" stop-opacity="0"/>
<stop offset="0.364583" stop-color="white" stop-opacity="0.3"/>
<stop offset="1" stop-color="white" stop-opacity="0.22"/>
</linearGradient>
<linearGradient id="paint16_linear" x1="80.084" y1="66.7147" x2="80.084" y2="67.0647" gradientUnits="userSpaceOnUse">
<stop stop-color="white" stop-opacity="0"/>
<stop offset="0.364583" stop-color="white" stop-opacity="0.3"/>
<stop offset="1" stop-color="white" stop-opacity="0.22"/>
</linearGradient>
<linearGradient id="paint17_linear" x1="159.584" y1="0.024231" x2="159.584" y2="66.8897" gradientUnits="userSpaceOnUse">
<stop stop-color="white" stop-opacity="0"/>
<stop offset="0.364583" stop-color="white" stop-opacity="0.3"/>
<stop offset="1" stop-color="white" stop-opacity="0.22"/>
</linearGradient>
<linearGradient id="paint18_linear" x1="167.909" y1="0.374329" x2="167.909" y2="66.8897" gradientUnits="userSpaceOnUse">
<stop stop-color="white" stop-opacity="0"/>
<stop offset="0.364583" stop-color="white" stop-opacity="0.3"/>
<stop offset="1" stop-color="white" stop-opacity="0.22"/>
</linearGradient>
<linearGradient id="paint19_linear" x1="176.233" y1="1.59961" x2="176.233" y2="66.8897" gradientUnits="userSpaceOnUse">
<stop stop-color="white" stop-opacity="0"/>
<stop offset="0.364583" stop-color="white" stop-opacity="0.3"/>
<stop offset="1" stop-color="white" stop-opacity="0.22"/>
</linearGradient>
<linearGradient id="paint20_linear" x1="184.142" y1="3.35004" x2="184.142" y2="66.8897" gradientUnits="userSpaceOnUse">
<stop stop-color="white" stop-opacity="0"/>
<stop offset="0.364583" stop-color="white" stop-opacity="0.3"/>
<stop offset="1" stop-color="white" stop-opacity="0.22"/>
</linearGradient>
<linearGradient id="paint21_linear" x1="192.05" y1="5.8006" x2="192.05" y2="66.8897" gradientUnits="userSpaceOnUse">
<stop stop-color="white" stop-opacity="0"/>
<stop offset="0.364583" stop-color="white" stop-opacity="0.3"/>
<stop offset="1" stop-color="white" stop-opacity="0.22"/>
</linearGradient>
<linearGradient id="paint22_linear" x1="199.334" y1="8.95129" x2="199.334" y2="66.8897" gradientUnits="userSpaceOnUse">
<stop stop-color="white" stop-opacity="0"/>
<stop offset="0.364583" stop-color="white" stop-opacity="0.3"/>
<stop offset="1" stop-color="white" stop-opacity="0.22"/>
</linearGradient>
<linearGradient id="paint23_linear" x1="206.41" y1="12.8022" x2="206.41" y2="66.8897" gradientUnits="userSpaceOnUse">
<stop stop-color="white" stop-opacity="0"/>
<stop offset="0.364583" stop-color="white" stop-opacity="0.3"/>
<stop offset="1" stop-color="white" stop-opacity="0.22"/>
</linearGradient>
<linearGradient id="paint24_linear" x1="212.861" y1="17.1782" x2="212.861" y2="66.8897" gradientUnits="userSpaceOnUse">
<stop stop-color="white" stop-opacity="0"/>
<stop offset="0.364583" stop-color="white" stop-opacity="0.3"/>
<stop offset="1" stop-color="white" stop-opacity="0.22"/>
</linearGradient>
<linearGradient id="paint25_linear" x1="218.689" y1="22.2544" x2="218.689" y2="66.8897" gradientUnits="userSpaceOnUse">
<stop stop-color="white" stop-opacity="0"/>
<stop offset="0.364583" stop-color="white" stop-opacity="0.3"/>
<stop offset="1" stop-color="white" stop-opacity="0.22"/>
</linearGradient>
<linearGradient id="paint26_linear" x1="223.892" y1="27.6807" x2="223.892" y2="66.8897" gradientUnits="userSpaceOnUse">
<stop stop-color="white" stop-opacity="0"/>
<stop offset="0.364583" stop-color="white" stop-opacity="0.3"/>
<stop offset="1" stop-color="white" stop-opacity="0.22"/>
</linearGradient>
<linearGradient id="paint27_linear" x1="228.47" y1="33.457" x2="228.47" y2="66.8897" gradientUnits="userSpaceOnUse">
<stop stop-color="white" stop-opacity="0"/>
<stop offset="0.364583" stop-color="white" stop-opacity="0.3"/>
<stop offset="1" stop-color="white" stop-opacity="0.22"/>
</linearGradient>
<linearGradient id="paint28_linear" x1="232.216" y1="39.5834" x2="232.216" y2="66.8897" gradientUnits="userSpaceOnUse">
<stop stop-color="white" stop-opacity="0"/>
<stop offset="0.364583" stop-color="white" stop-opacity="0.3"/>
<stop offset="1" stop-color="white" stop-opacity="0.22"/>
</linearGradient>
<linearGradient id="paint29_linear" x1="235.13" y1="46.2349" x2="235.13" y2="66.8897" gradientUnits="userSpaceOnUse">
<stop stop-color="white" stop-opacity="0"/>
<stop offset="0.364583" stop-color="white" stop-opacity="0.3"/>
<stop offset="1" stop-color="white" stop-opacity="0.22"/>
</linearGradient>
<linearGradient id="paint30_linear" x1="237.419" y1="52.8865" x2="237.419" y2="66.8897" gradientUnits="userSpaceOnUse">
<stop stop-color="white" stop-opacity="0"/>
<stop offset="0.364583" stop-color="white" stop-opacity="0.3"/>
<stop offset="1" stop-color="white" stop-opacity="0.22"/>
</linearGradient>
<linearGradient id="paint31_linear" x1="238.668" y1="59.8881" x2="238.668" y2="66.8897" gradientUnits="userSpaceOnUse">
<stop stop-color="white" stop-opacity="0"/>
<stop offset="0.364583" stop-color="white" stop-opacity="0.3"/>
<stop offset="1" stop-color="white" stop-opacity="0.22"/>
</linearGradient>
<linearGradient id="paint32_linear" x1="164.163" y1="66.7147" x2="164.163" y2="67.0647" gradientUnits="userSpaceOnUse">
<stop stop-color="white" stop-opacity="0"/>
<stop offset="0.364583" stop-color="white" stop-opacity="0.3"/>
<stop offset="1" stop-color="white" stop-opacity="0.22"/>
</linearGradient>
<linearGradient id="paint33_linear" x1="168.949" y1="66.7147" x2="168.949" y2="67.0647" gradientUnits="userSpaceOnUse">
<stop stop-color="white" stop-opacity="0"/>
<stop offset="0.364583" stop-color="white" stop-opacity="0.3"/>
<stop offset="1" stop-color="white" stop-opacity="0.22"/>
</linearGradient>
<linearGradient id="paint34_linear" x1="173.528" y1="66.7147" x2="173.528" y2="67.0647" gradientUnits="userSpaceOnUse">
<stop stop-color="white" stop-opacity="0"/>
<stop offset="0.364583" stop-color="white" stop-opacity="0.3"/>
<stop offset="1" stop-color="white" stop-opacity="0.22"/>
</linearGradient>
<linearGradient id="paint35_linear" x1="178.522" y1="66.7147" x2="178.522" y2="67.0647" gradientUnits="userSpaceOnUse">
<stop stop-color="white" stop-opacity="0"/>
<stop offset="0.364583" stop-color="white" stop-opacity="0.3"/>
<stop offset="1" stop-color="white" stop-opacity="0.22"/>
</linearGradient>
<linearGradient id="paint36_linear" x1="183.101" y1="66.7147" x2="183.101" y2="67.0647" gradientUnits="userSpaceOnUse">
<stop stop-color="white" stop-opacity="0"/>
<stop offset="0.364583" stop-color="white" stop-opacity="0.3"/>
<stop offset="1" stop-color="white" stop-opacity="0.22"/>
</linearGradient>
<linearGradient id="paint37_linear" x1="187.68" y1="66.7147" x2="187.68" y2="67.0647" gradientUnits="userSpaceOnUse">
<stop stop-color="white" stop-opacity="0"/>
<stop offset="0.364583" stop-color="white" stop-opacity="0.3"/>
<stop offset="1" stop-color="white" stop-opacity="0.22"/>
</linearGradient>
<linearGradient id="paint38_linear" x1="192.466" y1="66.7147" x2="192.466" y2="67.0647" gradientUnits="userSpaceOnUse">
<stop stop-color="white" stop-opacity="0"/>
<stop offset="0.364583" stop-color="white" stop-opacity="0.3"/>
<stop offset="1" stop-color="white" stop-opacity="0.22"/>
</linearGradient>
<linearGradient id="paint39_linear" x1="197.045" y1="66.7147" x2="197.045" y2="67.0647" gradientUnits="userSpaceOnUse">
<stop stop-color="white" stop-opacity="0"/>
<stop offset="0.364583" stop-color="white" stop-opacity="0.3"/>
<stop offset="1" stop-color="white" stop-opacity="0.22"/>
</linearGradient>
<linearGradient id="paint40_linear" x1="201.623" y1="66.7147" x2="201.623" y2="67.0647" gradientUnits="userSpaceOnUse">
<stop stop-color="white" stop-opacity="0"/>
<stop offset="0.364583" stop-color="white" stop-opacity="0.3"/>
<stop offset="1" stop-color="white" stop-opacity="0.22"/>
</linearGradient>
<linearGradient id="paint41_linear" x1="206.41" y1="66.7147" x2="206.41" y2="67.0647" gradientUnits="userSpaceOnUse">
<stop stop-color="white" stop-opacity="0"/>
<stop offset="0.364583" stop-color="white" stop-opacity="0.3"/>
<stop offset="1" stop-color="white" stop-opacity="0.22"/>
</linearGradient>
<linearGradient id="paint42_linear" x1="210.988" y1="66.7147" x2="210.988" y2="67.0647" gradientUnits="userSpaceOnUse">
<stop stop-color="white" stop-opacity="0"/>
<stop offset="0.364583" stop-color="white" stop-opacity="0.3"/>
<stop offset="1" stop-color="white" stop-opacity="0.22"/>
</linearGradient>
<linearGradient id="paint43_linear" x1="215.567" y1="66.7147" x2="215.567" y2="67.0647" gradientUnits="userSpaceOnUse">
<stop stop-color="white" stop-opacity="0"/>
<stop offset="0.364583" stop-color="white" stop-opacity="0.3"/>
<stop offset="1" stop-color="white" stop-opacity="0.22"/>
</linearGradient>
<linearGradient id="paint44_linear" x1="220.562" y1="66.7147" x2="220.562" y2="67.0647" gradientUnits="userSpaceOnUse">
<stop stop-color="white" stop-opacity="0"/>
<stop offset="0.364583" stop-color="white" stop-opacity="0.3"/>
<stop offset="1" stop-color="white" stop-opacity="0.22"/>
</linearGradient>
<linearGradient id="paint45_linear" x1="225.14" y1="66.7147" x2="225.14" y2="67.0647" gradientUnits="userSpaceOnUse">
<stop stop-color="white" stop-opacity="0"/>
<stop offset="0.364583" stop-color="white" stop-opacity="0.3"/>
<stop offset="1" stop-color="white" stop-opacity="0.22"/>
</linearGradient>
<linearGradient id="paint46_linear" x1="229.927" y1="66.7147" x2="229.927" y2="67.0647" gradientUnits="userSpaceOnUse">
<stop stop-color="white" stop-opacity="0"/>
<stop offset="0.364583" stop-color="white" stop-opacity="0.3"/>
<stop offset="1" stop-color="white" stop-opacity="0.22"/>
</linearGradient>
<linearGradient id="paint47_linear" x1="234.505" y1="66.7147" x2="234.505" y2="67.0647" gradientUnits="userSpaceOnUse">
<stop stop-color="white" stop-opacity="0"/>
<stop offset="0.364583" stop-color="white" stop-opacity="0.3"/>
<stop offset="1" stop-color="white" stop-opacity="0.22"/>
</linearGradient>
<linearGradient id="paint48_linear" x1="239.084" y1="66.7147" x2="239.084" y2="67.0647" gradientUnits="userSpaceOnUse">
<stop stop-color="white" stop-opacity="0"/>
<stop offset="0.364583" stop-color="white" stop-opacity="0.3"/>
<stop offset="1" stop-color="white" stop-opacity="0.22"/>
</linearGradient>
<linearGradient id="paint49_linear" x1="151.259" y1="0.374329" x2="151.259" y2="66.8897" gradientUnits="userSpaceOnUse">
<stop stop-color="white" stop-opacity="0"/>
<stop offset="0.364583" stop-color="white" stop-opacity="0.3"/>
<stop offset="1" stop-color="white" stop-opacity="0.22"/>
</linearGradient>
<linearGradient id="paint50_linear" x1="143.142" y1="1.59961" x2="143.142" y2="66.8897" gradientUnits="userSpaceOnUse">
<stop stop-color="white" stop-opacity="0"/>
<stop offset="0.364583" stop-color="white" stop-opacity="0.3"/>
<stop offset="1" stop-color="white" stop-opacity="0.22"/>
</linearGradient>
<linearGradient id="paint51_linear" x1="135.026" y1="3.35004" x2="135.026" y2="66.8897" gradientUnits="userSpaceOnUse">
<stop stop-color="white" stop-opacity="0"/>
<stop offset="0.364583" stop-color="white" stop-opacity="0.3"/>
<stop offset="1" stop-color="white" stop-opacity="0.22"/>
</linearGradient>
<linearGradient id="paint52_linear" x1="127.117" y1="5.8006" x2="127.117" y2="66.8897" gradientUnits="userSpaceOnUse">
<stop stop-color="white" stop-opacity="0"/>
<stop offset="0.364583" stop-color="white" stop-opacity="0.3"/>
<stop offset="1" stop-color="white" stop-opacity="0.22"/>
</linearGradient>
<linearGradient id="paint53_linear" x1="119.834" y1="8.95129" x2="119.834" y2="66.8897" gradientUnits="userSpaceOnUse">
<stop stop-color="white" stop-opacity="0"/>
<stop offset="0.364583" stop-color="white" stop-opacity="0.3"/>
<stop offset="1" stop-color="white" stop-opacity="0.22"/>
</linearGradient>
<linearGradient id="paint54_linear" x1="112.966" y1="12.8022" x2="112.966" y2="66.8897" gradientUnits="userSpaceOnUse">
<stop stop-color="white" stop-opacity="0"/>
<stop offset="0.364583" stop-color="white" stop-opacity="0.3"/>
<stop offset="1" stop-color="white" stop-opacity="0.22"/>
</linearGradient>
<linearGradient id="paint55_linear" x1="106.515" y1="17.1782" x2="106.515" y2="66.8897" gradientUnits="userSpaceOnUse">
<stop stop-color="white" stop-opacity="0"/>
<stop offset="0.364583" stop-color="white" stop-opacity="0.3"/>
<stop offset="1" stop-color="white" stop-opacity="0.22"/>
</linearGradient>
<linearGradient id="paint56_linear" x1="100.479" y1="22.2544" x2="100.479" y2="66.8897" gradientUnits="userSpaceOnUse">
<stop stop-color="white" stop-opacity="0"/>
<stop offset="0.364583" stop-color="white" stop-opacity="0.3"/>
<stop offset="1" stop-color="white" stop-opacity="0.22"/>
</linearGradient>
<linearGradient id="paint57_linear" x1="95.2763" y1="27.6807" x2="95.2763" y2="66.8897" gradientUnits="userSpaceOnUse">
<stop stop-color="white" stop-opacity="0"/>
<stop offset="0.364583" stop-color="white" stop-opacity="0.3"/>
<stop offset="1" stop-color="white" stop-opacity="0.22"/>
</linearGradient>
<linearGradient id="paint58_linear" x1="90.6976" y1="33.457" x2="90.6976" y2="66.8897" gradientUnits="userSpaceOnUse">
<stop stop-color="white" stop-opacity="0"/>
<stop offset="0.364583" stop-color="white" stop-opacity="0.3"/>
<stop offset="1" stop-color="white" stop-opacity="0.22"/>
</linearGradient>
<linearGradient id="paint59_linear" x1="86.9515" y1="39.5834" x2="86.9515" y2="66.8897" gradientUnits="userSpaceOnUse">
<stop stop-color="white" stop-opacity="0"/>
<stop offset="0.364583" stop-color="white" stop-opacity="0.3"/>
<stop offset="1" stop-color="white" stop-opacity="0.22"/>
</linearGradient>
<linearGradient id="paint60_linear" x1="84.038" y1="46.2349" x2="84.038" y2="66.8897" gradientUnits="userSpaceOnUse">
<stop stop-color="white" stop-opacity="0"/>
<stop offset="0.364583" stop-color="white" stop-opacity="0.3"/>
<stop offset="1" stop-color="white" stop-opacity="0.22"/>
</linearGradient>
<linearGradient id="paint61_linear" x1="81.957" y1="52.8865" x2="81.957" y2="66.8897" gradientUnits="userSpaceOnUse">
<stop stop-color="white" stop-opacity="0"/>
<stop offset="0.364583" stop-color="white" stop-opacity="0.3"/>
<stop offset="1" stop-color="white" stop-opacity="0.22"/>
</linearGradient>
<linearGradient id="paint62_linear" x1="80.4998" y1="59.8881" x2="80.4998" y2="66.8897" gradientUnits="userSpaceOnUse">
<stop stop-color="white" stop-opacity="0"/>
<stop offset="0.364583" stop-color="white" stop-opacity="0.3"/>
<stop offset="1" stop-color="white" stop-opacity="0.22"/>
</linearGradient>
</defs>
</svg>
